<svg width="1039" height="909" viewBox="0 0 1039 909" fill="none" xmlns="http://www.w3.org/2000/svg">
<path d="M843.44 0H194.64C143.018 0 93.5108 20.5117 57.0087 57.0228C20.5067 93.5339 0 143.054 0 194.688V713.856C0 765.49 20.5067 815.01 57.0087 851.521C93.5108 888.032 143.018 908.544 194.64 908.544H843.44C895.062 908.544 944.569 888.032 981.071 851.521C1017.57 815.01 1038.08 765.49 1038.08 713.856V194.688C1038.08 143.054 1017.57 93.5339 981.071 57.0228C944.569 20.5117 895.062 0 843.44 0ZM129.76 713.856V194.688C129.76 177.477 136.596 160.97 148.763 148.8C160.93 136.629 177.433 129.792 194.64 129.792H294.231C292.807 135.085 292.044 140.535 291.96 146.016V778.752H194.64C177.433 778.752 160.93 771.915 148.763 759.744C136.596 747.574 129.76 731.067 129.76 713.856ZM908.32 713.856C908.32 731.067 901.484 747.574 889.317 759.744C877.15 771.915 860.647 778.752 843.44 778.752H421.72V146.016C421.636 140.535 420.873 135.085 419.449 129.792H843.44C860.647 129.792 877.15 136.629 889.317 148.8C901.484 160.97 908.32 177.477 908.32 194.688V713.856Z" fill="black"/>
</svg>
